<svg version="1" xmlns="http://www.w3.org/2000/svg" width="1333.333" height="1333.333" viewBox="0 0 1000.000000 1000.000000"><path d="M107.5 10.3C99.1 16.4 61.3 53.1 38.7 77c-24.3 25.8-29.9 36.7-30 58.5-.1 10.6.3 13 2.7 20.5 3.5 10.5 5.7 14.9 15.9 32 18.4 30.8 33.1 50 38.2 50 2.7 0 8.5-5.6 8.5-8.3 0-1.1-3.1-7.7-6.9-14.6-15-27.2-22.5-50-21.6-65.6.7-11.3 3.5-24.6 6.5-30.5 3.9-7.6 19.8-19.8 25.5-19.6 2.2.1 2.9.8 4 3.9 1.6 4.7 4.2 7.7 6.7 7.7 1 0 1.8.4 1.8.9 0 .8 3.9 6.1 28.4 38.1 12.7 16.6 11.6 15.3 19.2 24.5 12.6 15.3 40 43.7 71.5 74.1 8 7.7 8.4 8.4 8.1 12-.7 9.8-9.8 20.8-22.8 27.6-6.1 3.1-8.8 4.1-14.4 5.5-4.7 1.1-15 .9-20.8-.3-7.5-1.6-10.2-2.6-21.4-7.8-4.2-2-8.4-3.6-9.3-3.6-4.8 0-8.6 6-6.5 10.1 4.3 8 34.6 26.1 51.5 30.7 13.3 3.6 23.8 2.7 35.6-3.2 2.8-1.4 5.4-2.6 5.7-2.6.4 0 .7 8.9.8 19.8.1 27 1.8 59.7 3.9 76.7.2 1.6.6 6.4 1 10.5s.9 8.4 1.1 9.5c.2 1.1.6 4 1 6.5.3 2.5.9 7 1.4 10 .5 3 1.2 7.3 1.5 9.5.6 4.2 3.4 19.6 4.2 23 .2 1.1.6 3.1.9 4.5 4.8 25.3 18.2 70.4 28.7 97 6.4 16.3 10.5 25.5 18.5 42 4.9 10.1 16.6 31.9 20.2 37.6 1.1 1.8-.6 5.9-15.8 36.5-17.1 34.6-26.2 49.9-43.8 74.1-6.8 9.3-23.4 30.8-24.4 31.8-.3.3-2.1 2.5-4 5-5.8 7.6-36.7 44.6-49.9 60-6.9 8-13.5 15.6-14.6 16.9-1.1 1.3-2.7 3.1-3.5 4-.9.9-6.7 7.4-13 14.6-6.3 7.1-11.7 13.2-12 13.5-.3.3-4.6 5-9.5 10.5s-11 12.2-13.5 14.9c-2.5 2.7-4.9 5.4-5.5 6-.8.9-24.5 26.5-26.5 28.6-.3.3-3 3.1-6 6.3l-5.4 5.7 6.4-1.9c13.3-3.8 46.3-15.2 55.5-19.2 1.1-.5 5.8-2.4 10.5-4.3 8.2-3.3 25.5-10.7 37.1-15.9 40.4-18.2 99-50.9 131.9-73.5 22.4-15.5 58.2-43.8 76.6-60.7.6-.5 4.8-4.4 9.4-8.5 8.1-7.4 11.1-10.1 18.3-16.9l3.6-3.4 9.1 8.6c13.1 12.5 21.3 19.4 36.2 30.5 28 20.7 53.5 37.5 55.6 36.7 8.2-3.1 68.4-46.6 81.8-59 2.5-2.3 13.9-12.1 16.1-13.9l2.4-1.8 10.2 9.3c5.6 5.1 10.7 9.8 11.2 10.3.6.6 4.4 4 8.5 7.6 4.1 3.6 7.7 6.8 8 7.1 1.5 2.1 35.7 29.7 48.5 39.3 31.8 23.9 70.1 47.1 116.5 70.7 49.2 25 107.1 48.7 141.4 57.8l3.8 1-6.3-6.7c-3.5-3.7-8.6-9.1-11.4-12.1-2.7-3-6.1-6.6-7.5-8.1-1.4-1.4-4.7-5.1-7.4-8.1-2.6-3-7.1-7.9-10-10.9-2.8-3-8.9-9.8-13.6-15-7.8-8.7-14.9-16.6-17.5-19.4-1.1-1.1-26.4-30.1-36-41.1-6.2-7.1-32.6-38.5-37.1-44.1-1.7-2.2-5.6-6.9-8.5-10.6-25.1-31-47.3-61.7-58.4-80.8-2-3.6-10.7-20.6-19.2-37.8-14.8-29.8-15.5-31.5-14.2-34 .8-1.5 3.6-6.5 6.3-11.2 6.7-11.8 18.5-35.6 23.6-47.5 2.3-5.5 5-11.8 6-14 5.2-11.5 18.8-52.1 22.3-66 .2-1.1 1.4-5.4 2.5-9.5 2.2-8 6.7-28.2 7.7-34 .3-1.9.8-4.2 1-5 .2-.8.7-3 1-4.8.3-1.7.7-4.4 1-6 1.4-8.5 3.5-22.3 4-26.2.3-2.5.7-5.6 1-7 .2-1.4.7-5.4 1-9 .4-3.6.8-7.6 1-9 .2-1.4.6-6.3 1-11s.8-10.1 1-12c.8-8.3 1.8-36.1 1.9-54.6l.1-20 6.7 3.3c11.8 5.8 21 6.7 34.2 3.3 15.2-3.9 41.5-18.6 49.9-27.9 4.2-4.6 4.3-5.1 2.2-9-2.7-5.3-5.1-5.3-16-.2-22.7 10.7-37.3 11.4-55.1 2.7-12.9-6.4-22.5-17.6-23.7-27.6-.4-3.4.2-4.2 27.2-31.1 25.1-25.1 34-34.1 44.1-45.5 4.8-5.3 21.7-26.5 31.5-39.4 4.4-5.8 8.5-11.2 9.2-12 .7-.8 4.4-5.8 8.2-11 3.9-5.2 8.3-10.2 9.8-11.1 1.5-.8 3.9-3.7 5.3-6.4s3.1-5 3.8-5.3c2.2-.7 11.5 4.5 17.5 9.8 9.2 8.3 11.8 14.2 14.5 32.5 2.9 20.7-3.7 42.6-24.1 79.6-2.1 3.7-3.7 7.5-3.7 8.6 0 2.5 6 8.3 8.6 8.3 1.7 0 5.2-3 11.7-10 3.1-3.4 17.5-25.3 26.8-40.7 15.2-25.5 19.1-37.1 18.4-54.7-1-23.3-8.6-34.6-53.1-79-31.7-31.7-45.3-44-49.7-45.1-2.3-.6-3.5.1-9.7 6-3.8 3.7-7.2 7.5-7.5 8.5-.3.9.8 4.8 2.3 8.6 2.6 6.2 4.4 12.4 5.7 19.2.2 1.3.7 3.2 1 4.3.4 1.3.1 2.1-1.2 2.5-5.7 1.9-9 4.3-16.3 11.5-4.4 4.5-8 8.6-8 9.1 0 .6-1.1 1.9-2.5 3s-2.5 2.6-2.5 3.4c0 .8-.6 1.4-1.3 1.4-1.4 0-6.7 5.1-6.7 6.5 0 .4-1.7 2.5-3.7 4.6-11.3 11.4-14.3 14.8-14.3 16.2 0 1-.5 1.7-1 1.7-1.1 0-15.9 14.5-19.5 19-1.1 1.4-4 5.2-6.5 8.4s-6.2 7.6-8.3 9.9c-2 2.3-3.7 4.6-3.7 5.2 0 .6-1.3 2.4-3 4-1.6 1.6-3 3.7-3 4.7s-.6 2.1-1.4 2.4c-.8.3-2.7 2.4-4.3 4.7-1.5 2.3-3.5 4.8-4.5 5.4-.9.7-2.9 3.4-4.6 6-1.6 2.7-4.4 6.4-6.3 8.4-10.1 10.8-14.2 16.1-14.4 18.9-.1.8-.5 2.6-.9 3.9-.8 2.3-1.1 2.3-8.5 1.9-7.9-.5-12.4-2.2-20.8-7.9-2.3-1.6-4.5-2.9-5-2.9-.9 0-9.9 10.9-12.6 15.2-2.2 3.6-1.4 5.3 5.5 12.4l4.9 5-7.6 8.7c-4.2 4.8-8 8.7-8.4 8.7-2.7 0-34.2-9-53.1-15.2-17.4-5.6-24.1-8.1-48.5-17.5-18.9-7.3-20.2-8-33-17.2-15.1-10.9-33.2-22.9-38.6-25.6-6.2-3.2-15.3-3.7-21.3-1.1-4.1 1.7-16.2 9.5-27.6 17.7-6 4.3-14.1 9-16.5 9.5-.5.1-4.1 1.7-8 3.4-8.5 3.9-34.1 14.5-41 17-2.7.9-10.8 3.9-18 6.5-16.3 5.9-46.4 15.3-62.5 19.6l-12.3 3.3-3.6-4c-2-2.2-5.5-6.2-7.8-8.9l-4.2-4.9 5.4-5.7c7.3-7.7 7.4-8.6 1-16.8-5.6-7.4-8.1-10.1-8.9-10.1-.4 0-2.8 1.4-5.4 3.2-6.9 4.8-14.9 7.7-20.9 7.8-6.5 0-8.3-.7-8.3-3.4-.1-4.4-3.8-9.7-15.2-21.8-2-2.1-4.8-5.9-6.3-8.3-1.4-2.4-3.3-5-4.3-5.7-.9-.7-3-3.2-4.5-5.5-1.6-2.3-3.5-4.4-4.3-4.7-.8-.3-1.4-1.4-1.4-2.4s-1.3-3.1-3-4.7c-1.6-1.6-3-3.4-3-4 0-.6-1.7-2.9-3.7-5.2-2.1-2.3-5.8-6.7-8.3-9.9-7.4-9.5-8.2-10.5-15.4-18-3.7-4-7.9-7.7-9.1-8.4-1.3-.7-2.6-2.3-2.9-3.5-.3-1.3-2.3-3.8-4.3-5.6-2.1-1.8-5-4.9-6.5-7-1.5-2-3.6-4-4.7-4.4-1.1-.3-2.2-1.9-2.6-3.5-.4-1.7-1-3-1.5-3-1.1 0-11-9.7-11-10.8 0-2.2-16.2-17.1-20.8-19.2-4.5-2-5-2.6-4.6-4.9 1.1-5.9 4.9-19 7.1-24 1.3-2.9 2.1-6.1 1.8-7.1-.9-2.7-14.1-15-16.2-15-1 0-3.1 1.1-4.8 2.3zm403.7 193.9c4.8 3.8 23.6 19.6 29.8 25.2 1.4 1.2 8.9 7.7 16.8 14.5 7.8 6.8 14.2 12.6 14.2 12.8 0 .3-1.6 5.5-3.5 11.7-1.9 6.1-5.7 19.6-8.4 30.1-4.2 16.1-8.5 30.4-11.7 39-.7 1.9-.6 1.9 1.2.3 1-.9 9-5.3 17.8-9.7l15.8-8.1 14.7 7.6c31.5 16.5 44.9 25.4 59.9 39.8 6.5 6.2 15 16.4 17 20.3 1.1 1.9 2.6 9.7 3.7 19.3.2 1.9.7 4.6 1 6 .2 1.4.7 3.8.9 5.5 2.1 12.9 3.6 22.6 4.1 26 .3 2.2 1 6.4 1.5 9.4.6 3 1 5.6 1 5.7 0 .2-36.8 17.1-45 20.7-5.9 2.5-8.2 3.5-22.5 9.7-6.6 2.9-14 6.1-16.5 7.2-3.9 1.8-7.3 3.3-17.5 7.8-17.2 7.6-49 23.8-48.3 24.6.3.2 5.1-1.6 10.9-4 5.7-2.4 20.1-8.3 31.9-13 11.8-4.8 22.4-9.1 23.5-9.6 6.5-3 73-30.9 73.1-30.7.2.1.5 2 .8 4.2.4 3.5 1.6 11.2 3 19.5 2.5 14.3 4.2 36.4 4.5 57.6l.2 18.1-7.8 3.3c-17.9 7.7-47.3 23.6-63.2 34.2-13.3 8.9-33.8 25.2-29.6 23.6.6-.2 10.2-4.9 21.5-10.5 21-10.4 44-20.6 44.7-19.9.2.2 2.5 6 5 12.7 2.4 6.8 5.5 15.1 6.8 18.4 2 5 7.1 20.5 14.6 44.3 1 3.1.8 3.6-4.7 10.5-9.8 12.1-27.8 29.7-50 48.7-11.4 9.9-57.4 44.3-58.1 43.6-.3-.3-1.8-22.3-2.8-41.1-.3-6.1-.8-14.6-1-19-.7-12.9-1.5-28.3-2-39-.5-11-1.5-30.8-2-39.5-.2-3-.6-12-1-20l-.7-14.5 14.9-9.1c8.1-5 24.9-15.1 37.3-22.4 12.4-7.3 22.7-13.5 22.9-13.6.2-.2.4-6.9.5-14.8l.1-14.4 7-7.4c8.6-9.1 15.5-17.1 15.1-17.5-.1-.2-9.2 4.1-20.2 9.6-10.9 5.4-27.3 13.1-36.4 17.1-17.8 7.8-56.7 23.4-61.3 24.5-2.9.8-4.6 3-4.2 5.6.2.9.6 7.4.9 14.5 1.6 33.3 2 37.2 4.7 40.7 11.7 15.9 13 18.8 10.3 23.8-3.9 7.7-16 21.2-28.4 31.9-1.4 1.2-4.3 3.8-6.5 5.9-6 5.6-6.2 5.6-10.4 1.9-2.1-1.8-5.8-4.9-8.2-6.8-17-13.6-26.5-23-30-29.8l-2.3-4.3 2.2-4.5c1.3-2.5 3.9-6.9 6-9.7 8.8-12.1 8.3-9.6 10.7-49.7.3-5.2.8-11.5 1.1-14l.4-4.5-5.2-1.9c-7.5-2.6-46.6-18-55.1-21.7-8.3-3.6-10.8-4.7-19.7-8.7-15.8-7-22.2-10-32.7-15.3-7-3.5-10.9-5.1-10.4-4 .5.9 5.8 6.8 11.8 13.1l10.8 11.5-.1 14.2-.2 14.2 10.2 6.2c13.5 8.3 33.7 22 47.1 32.2l11 8.2-.4 8c-.7 12.7-.5 65.9.3 90 1 32.6 1.6 86.7 1 89.2-.4 1.3-.9 2.3-1.3 2.3-1.3-.1-18-14.6-31.5-27.3-23.3-22.1-74.4-74.3-76-77.7-1-2.3.3-7.4 13.5-52.5 11.9-40.3 11.3-38.6 13.6-37.8 6.7 2.3 40.1 19.4 53.1 27.1 2.8 1.7 5.2 2.8 5.2 2.4 0-.4-4.1-3.8-9-7.7-16.9-13.2-44.2-28.3-77-42.6-8-3.4-15-6.6-15.6-7.1-2.1-1.5-.6-42.4 2.3-61.3.3-2.2.7-4.9.8-6 .2-1.1 1.5-8.3 3-16 1.4-7.7 2.8-15.1 2.9-16.5.2-3.2.5-3.2 16.2 3.6 17.8 7.8 58.2 24.6 86.4 36.1 12.9 5.2 27.1 11 31.5 12.9 12.2 5.1 6 1.3-13.5-8.5-19.7-9.8-23.1-11.3-52.6-23.9-11.5-5-23.5-10.2-26.6-11.6-3.1-1.4-5.9-2.6-6.2-2.6-.4 0-2.5-.9-4.9-1.9-2.3-1.1-10.9-4.9-19-8.5-8.1-3.7-17.9-8.2-21.6-10.1l-6.9-3.4 2.3-8.3c10.4-36.9 19-57.3 31.9-76.3 7.8-11.5 25.2-29 38.5-38.9 12.7-9.3 34.1-22.6 36.6-22.6 1 0 12.5 10.8 26.1 24.5C465 349 476.1 360 476.3 360c.2 0-1.1-4.4-3-9.8-1.9-5.3-5.7-17.1-8.4-26.2-2.8-9.1-7.5-24.4-10.4-34-2.9-9.6-6.6-21.2-8.2-25.7l-3-8.2 14.6-14c8-7.6 17.6-16.8 21.2-20.3 17.7-16.9 23.4-21.8 25.4-21.8.7 0 3.7 1.9 6.7 4.2zm119.3 57.5c8.3 3 21.2 7.5 28.8 10 7.6 2.5 13.6 4.9 13.5 5.3-.2.5-6.1 7.5-13.3 15.6-12.4 14.3-14.9 17.1-22.7 25.7l-3.4 3.8-7.7-5.1c-10.6-7-21.2-13.1-30.1-17.6-4.2-2-7.6-3.9-7.6-4 0-.2 2-5.4 4.4-11.6 8-20.2 9.5-24.8 9.8-28.7l.2-3.9 6.5 2.5c3.6 1.4 13.4 5 21.6 8zm-221.9-5.2c.4 3.2 3.8 12.7 12.3 34.3l2.1 5.3-2.8.9c-5.1 1.9-22.8 12.3-38.7 22.7-9.2 6.1-11.2 7.1-12.1 5.8-.6-.8-4.2-4.9-8-9.2-26.7-29.9-31.1-35-30.3-35.7.5-.4 17-5.9 18.4-6.2 1.6-.3 43.4-16 51-19.2 3.9-1.6 7.1-2.8 7.3-2.7.2.2.5 2 .8 4zm-104.8 22.1c2.5.5 6.2 4.2 17.8 17.6 8.2 9.4 15.3 17.6 15.8 18.2.6.6 4 4.5 7.6 8.6 3.6 4.1 7.7 8.8 9.2 10.5 1.6 1.6 2.8 3.2 2.8 3.5 0 .8-17.9 18.4-18.3 17.9-.6-.8-10.2-12.4-10.7-12.9-.3-.3-6.6-7.9-14-17s-15.3-18.7-17.5-21.4c-11.8-14.5-15.5-19.2-15.5-19.9 0-.4 2.4-1.9 5.3-3.2 5.2-2.5 11.3-3.1 17.5-1.9zm414 1.5c2 .6 4.5 1.7 5.5 2.4 1.6 1.1 1.6 1.4-.5 4.1-3 3.9-36 44.6-37.3 46-.5.6-4.4 5.2-8.5 10.2-4.6 5.6-7.9 8.8-8.6 8.4-.6-.4-4.6-4-8.8-7.9-4.3-4-8.4-7.7-9.4-8.2-1.4-.8-.9-1.7 3.3-6.8 2.7-3.2 5.2-6 5.5-6.3.8-.8 16.8-19 30.9-35.5 4.6-5.3 5.8-6.1 10.4-7.1 6-1.3 12.2-1 17.5.7zm46.2 19.4c.9 1.1 1.2 8.4 1.1 28.2-.1 14.8-.3 28.8-.5 31.3s-.7 9-1 14.5c-.4 5.5-.8 11.6-1.1 13.5-.2 1.9-.7 6.6-1.1 10.5-.7 8.4-1.4 15.1-1.9 18.5-.1 1.4-.6 5.2-1 8.5s-.8 6.2-1 6.5c-.2.3-.6 3-.9 6-.3 3-1.5 10.4-2.6 16.5-3.1 17.6-3.5 19.6-6.4 33.2-.9 4-1.8 8.7-2.1 10.5-.3 1.7-.8 3.4-1 3.8-.2.3-.6 1.7-.9 3.1-2.1 11.5-13.5 51.2-20 69.7-8.7 25-15.4 41.3-26.5 64.5l-6.1 12.8-5.4-5.3-5.4-5.4-2.2-17.9c-1.2-9.9-2.2-18.9-2.3-20-.2-1.5 1.3-2.8 6.2-5.2 13.4-6.8 15.8-11.5 16.5-32.9 2.1-60 2.2-74.5.9-136.4-.8-38.9-.9-39.9-5.5-46-1.9-2.7-2-3.1-.6-4.7.8-1 7.7-9.2 15.3-18.3 7.7-9.1 14.2-16.7 14.5-17 .3-.3 3-3.4 6-7s5.7-6.7 6-7c.3-.3 3.5-3.9 7-8 3.6-4.1 7-8 7.5-8.6.6-.6 3.4-3.9 6.3-7.3 3-3.3 5.7-6.1 6.2-6.1.4 0 1.3.7 2 1.5zm-514.4 10.8c1.6 1.8 5.4 6.1 8.4 9.7 3 3.6 6.7 7.8 8.2 9.5 2.2 2.5 24.8 28.9 32.1 37.5 5 5.8 17.3 20.6 18.5 22.1 1 1.4.6 3.3-2.5 11-2 5.2-6.2 17.7-9.4 27.9-4.9 16-5.7 19.5-5.5 25.5.2 7.8 1.7 11.2 6.7 16.4 2.8 2.7 3.4 4.2 3.5 8 .1 2.5.4 15.4.8 28.6.6 22.4 1.3 46.1 2.1 65.1.3 9.2 2.7 15.9 7.2 19.9 2.9 2.6 18.1 10.5 20.2 10.5 1.3 0 1.3 1-1 17.2-1.1 7.4-1.2 7.7-5.5 10.7-2.4 1.8-4.9 3.7-5.6 4.4-.7.7-2.9 2.4-4.8 3.8l-3.6 2.7-2.3-4.2c-9.9-17.7-23.8-47.4-31.8-68.1-7.4-19.1-19.9-59.8-22.9-75-.2-1.1-.6-2.9-.9-4-2.6-12-7.1-36.5-8.1-44-.2-2.2-.7-5.1-.9-6.5-1.1-6.8-2.1-14.8-3-24.5-.3-3.9-.8-8.6-1-10.5-.3-1.9-.7-6.9-1-11-.2-4.1-.8-11.1-1.1-15.5-.9-11.8-1.2-70.5-.4-70.5.4 0 2 1.5 3.6 3.3zm83 352.1c-.3 1.2-.8 4.1-1.2 6.2-.5 3.4-2.5 12.8-4.1 18.9-1.2 4.8-1.4 13.7-.4 16.6.9 2.6.8 3.6-.9 5.9-1.1 1.6-2 3.1-2 3.4 0 1.2-16.4 27.3-25.7 41.1-37.1 54.5-82.6 105-134.8 149.6-11 9.4-23.1 18.9-24 18.9-.4 0 2.9-3.5 7.2-7.8 10.1-9.8 27.3-28.6 39.2-42.7 5.2-6.1 10.3-12.1 11.5-13.5 5.6-6.6 26.3-33 35.7-45.5 38.1-50.7 70.9-101 89.2-136.5 6.4-12.3 9.2-17 10.5-17 .2 0 .2 1.1-.2 2.4zm359 30.3c27.3 47.8 85.2 130 120 170.3 1.2 1.4 5.4 6.3 9.4 11 12.2 14.3 22.8 25.8 38.5 42 8.6 8.9 8.7 9.1 3 4.6-3.3-2.6-6.7-5.3-7.5-5.9-26.9-21.1-67.5-60.3-94-90.7-20.7-23.8-41.5-51.2-58.4-76.9-11.7-17.7-23.6-37.2-23.6-38.7 0-.3 1.3-2.3 2.9-4.3 3.4-4.2 6.1-10.4 6.1-13.7 0-1.3.2-2.4.5-2.4.2 0 1.6 2.1 3.1 4.7zM488 704.4c6.2 6.7 18.5 8.9 27.2 4.9 2.8-1.3 5.1-2.2 5.2-2 .1.1 3.6 3.9 7.9 8.3 8.8 9 8.1 7.1 9.1 26.9.6 11.1.9 15.2 2.2 34 .2 3.8.7 8.3 1 10 .9 4.7 5.1 11.3 9 13.9l3.5 2.3-6.3 5c-8 6.2-25.7 18.9-32.5 23.1l-5.1 3.3-9.4-6.2c-5.1-3.4-12.4-8.3-16.3-10.8-3.8-2.5-7.2-4.8-7.5-5.1-.3-.3-2.7-2-5.5-3.9-2.7-1.9-5.2-3.6-5.4-3.7-.2-.2.3-1.4 1.1-2.6 3.3-5.1 3.9-8.5 5.3-32.8.3-5.2.8-12.2 1-15.5.2-3.3.7-12.3 1-20 .8-15.9 1.1-20.4 1.6-21 .2-.2 2.4-2.7 4.9-5.4 2.4-2.8 4.7-5.1 5-5.1.4 0 1.7 1.1 3 2.4z"/><path d="M412.8 336.9c-20.7 9.2-39.4 26.4-52.8 48.5-6.3 10.4-7.4 12.5-11.5 21.7-5.5 12.3-13.6 38.3-12.4 39.3 1.8 1.3 92.3 46.7 91.4 45.8-.5-.5-8.9-6.3-18.5-12.8-23.9-16-32.5-22.2-46.2-33.2-11.7-9.3-11.8-9.4-11.8-13.5 0-2.3.9-7.6 2.1-11.7 9-32.8 34.5-66.5 63.3-83.8 8.7-5.2 7.6-5.3-3.6-.3z"/></svg>